<?xml version="1.0" standalone="no"?>
<!DOCTYPE svg PUBLIC "-//W3C//DTD SVG 1.1//EN" "http://www.w3.org/Graphics/SVG/1.1/DTD/svg11.dtd" >
<!--
2013-9-30: Created.
-->
<svg>
<metadata>
Created by iconfont
</metadata>
<defs>

<font id="iconfont" horiz-adv-x="1024" >
  <font-face
    font-family="iconfont"
    font-weight="500"
    font-stretch="normal"
    units-per-em="1024"
    ascent="896"
    descent="-128"
  />
    <missing-glyph />
    
    <glyph glyph-name="qiehuan" unicode="&#58897;" d="M66.56 711.68h936.96v-92.16H66.56zM337.92 430.08h665.6v-92.16H337.92zM66.56 148.48h936.96v-92.16H66.56zM204.8 522.24l-138.24-138.24 138.24-143.36z"  horiz-adv-x="1024" />

    
    <glyph glyph-name="qiehuan1" unicode="&#58898;" d="M66.56 711.68h936.96v-92.16H66.56zM337.92 430.08h665.6v-92.16H337.92zM66.56 148.48h936.96v-92.16H66.56zM66.56 245.76l138.24 138.24-138.24 143.36z"  horiz-adv-x="1024" />

    
    <glyph glyph-name="daochu" unicode="&#59180;" d="M704 448c-198.4 0-371.2-128-428.8-320-38.4 134.4-12.8 281.6 70.4 396.8C428.8 633.6 563.2 704 704 704V896l320-320-320-320V448z m192-256c0 38.4 25.6 64 64 64s64-25.6 64-64v-192c0-70.4-57.6-128-128-128H128c-70.4 0-128 57.6-128 128V512c0 70.4 57.6 128 128 128h128c38.4 0 64-25.6 64-64s-25.6-64-64-64H192c-32 0-64-25.6-64-64v-384c0-38.4 25.6-64 64-64h640c38.4 0 64 25.6 64 64v128z m0 0"  horiz-adv-x="1024" />

    
    <glyph glyph-name="xinzeng1" unicode="&#59201;" d="M889.6 896H134.4C64 896 6.4 838.4 6.4 768v-768c0-70.4 57.6-128 128-128H896c70.4 0 128 57.6 128 128V768c-6.4 70.4-64 128-134.4 128z m-172.8-556.8H563.2v-153.6c0-25.6-19.2-51.2-51.2-51.2-25.6 0-51.2 19.2-51.2 51.2V339.2H313.6c-32 0-51.2 19.2-51.2 44.8 0 25.6 19.2 51.2 51.2 51.2h153.6V588.8c0 25.6 19.2 51.2 51.2 51.2 25.6 0 51.2-19.2 51.2-51.2v-153.6h153.6c25.6 0 51.2-19.2 51.2-51.2-12.8-25.6-32-44.8-57.6-44.8z"  horiz-adv-x="1024" />

    
    <glyph glyph-name="zhongzhi" unicode="&#58949;" d="M990.72 562.176c-73.728 175.104-255.488 279.04-443.904 253.44-188.416-25.6-335.872-174.08-360.448-361.984H0l219.136-219.136 219.136 219.136H257.024c26.624 167.424 171.52 295.936 346.112 295.936 193.536 0 350.72-157.184 350.72-350.72s-157.184-350.72-350.72-350.72c-80.896 0-159.744 28.16-222.208 79.36-14.848 11.776-36.864 9.728-48.64-5.12-12.288-14.848-10.24-36.352 4.608-48.64 149.504-122.368 363.52-127.488 518.144-11.776 154.624 115.712 210.944 322.048 135.68 500.224z m0 0"  horiz-adv-x="1024" />

    
    <glyph glyph-name="chaxun" unicode="&#58950;" d="M982.734328 60.497512l-189.516418 128.891543c38.208955 62.662687 60.115423 136.533333 60.115423 214.989054 0 228.744279-185.440796 414.185075-414.185074 414.185075C210.913433 818.563184 25.472637 633.631841 25.472637 404.887562s185.440796-414.185075 414.185074-414.185074c124.81592 0 237.404975 55.530348 313.313433 143.156218l191.554229-130.4199c5.60398-4.075622 12.736318-6.113433 19.359204-6.113433 11.20796 0 21.906468 5.094527 28.529353 15.283582 10.189055 15.793035 6.113433 37.19005-9.679602 47.888557m-409.090547 26.491543c-42.284577-17.830846-87.625871-27.000995-133.98607-27.000995s-91.701493 9.170149-133.986069 27.000995c-41.265672 17.321393-77.946269 42.284577-109.532339 73.870646-31.58607 31.58607-56.549254 68.776119-73.870646 109.532339-17.830846 42.284577-27.000995 87.625871-27.000995 133.986069 0 46.360199 9.170149 91.701493 27.000995 133.98607 17.321393 41.265672 42.284577 77.946269 73.870646 109.532338C227.725373 679.482587 264.915423 704.445771 305.671642 721.767164c42.284577 17.830846 87.625871 27.000995 133.986069 27.000995s91.701493-9.170149 133.98607-27.000995c41.265672-17.321393 77.946269-42.284577 109.532338-73.870647 31.58607-31.58607 56.549254-68.776119 73.870647-109.532338 17.830846-42.284577 27.000995-87.625871 27.000995-133.98607 0-46.360199-9.170149-91.701493-27.000995-133.986069-8.660697-20.887562-19.868657-41.265672-32.604975-60.115423-3.566169-2.547264-7.132338-5.60398-9.679602-9.170149-2.037811-3.056716-3.566169-6.113433-4.585075-9.679602-8.660697-10.698507-17.321393-20.887562-27.000995-30.567165-31.58607-31.58607-68.266667-56.549254-109.532338-73.870646M654.646766 565.365174c-5.094527 0-10.189055 1.528358-14.264676 4.075622-9.170149 5.60398-18.849751 10.698507-29.038806 14.774129-14.264677 6.113433-20.378109 22.41592-14.77413 36.171145 6.113433 14.264677 22.41592 20.378109 36.171145 14.774129 12.736318-5.094527 24.453731-11.717413 36.171144-18.849751 13.245771-8.151244 17.321393-24.963184 9.170149-38.208955-5.094527-8.151244-14.264677-12.736318-23.434826-12.736319m-422.845771-29.548259c-6.113433 0-11.717413 2.037811-16.81194 5.603981-12.226866 9.170149-14.264677 26.491542-5.094528 38.718407C251.160199 633.631841 310.766169 670.312438 377.504478 682.029851c52.983085 9.679602 107.494527 3.566169 156.911442-17.321393 14.264677-6.113433 20.378109-22.41592 14.77413-36.171145-6.113433-14.264677-22.41592-20.378109-36.171145-14.774129-39.227861 16.81194-82.531343 21.397015-125.325373 13.755224-53.492537-9.679602-100.871642-38.718408-133.986069-81.512438-5.094527-6.622886-13.245771-10.189055-21.906468-10.189055"  horiz-adv-x="1024" />

    
    <glyph glyph-name="zengjia" unicode="&#59230;" d="M512 819.2a428.8 428.8 0 1 0-428.8-428.8c0 236.8 192 428.8 428.8 428.8M512 889.6C236.8 889.6 12.8 672 12.8 396.8v-6.4c0-275.2 217.6-499.2 492.8-499.2H512c275.2 0 499.2 217.6 499.2 492.8v6.4C1011.2 665.6 793.6 889.6 512 889.6zM512 672c-19.2 6.4-38.4-12.8-38.4-32V134.4c0-19.2 12.8-38.4 38.4-38.4 19.2 0 38.4 12.8 38.4 38.4V640c-6.4 19.2-19.2 32-38.4 32zM761.6 422.4H262.4c-19.2 0-32-19.2-32-38.4s12.8-32 32-32h499.2c19.2 0 38.4 12.8 38.4 32 0 25.6-19.2 38.4-38.4 38.4z"  horiz-adv-x="1024" />

    
    <glyph glyph-name="shanjian" unicode="&#59231;" d="M512 812.8A428.8 428.8 0 1 0 83.2 384c0 236.8 192 428.8 428.8 428.8M512 883.2C236.8 883.2 12.8 665.6 12.8 390.4V384c0-275.2 217.6-499.2 492.8-499.2H512c275.2 0 499.2 217.6 499.2 492.8V384C1017.6 659.2 793.6 883.2 512 883.2c6.4 0 6.4 0 0 0zM761.6 416H262.4c-19.2 0-32-12.8-32-32s12.8-32 32-32h499.2c19.2 0 38.4 12.8 38.4 32s-12.8 32-38.4 32c6.4 0 6.4 0 0 0z"  horiz-adv-x="1024" />

    
    <glyph glyph-name="kaiqi" unicode="&#59239;" d="M1024 620.8c-6.4 140.8-115.2 249.6-256 249.6s-256-115.2-256-256v-192H64c-32 0-51.2-25.6-51.2-51.2v-409.6c0-32 25.6-51.2 51.2-51.2h665.6c32 0 51.2 25.6 51.2 51.2V371.2c0 25.6-25.6 51.2-51.2 51.2H608v192C608 704 678.4 768 761.6 768c83.2 0 153.6-70.4 153.6-153.6v-192h102.4v192c6.4 0 6.4 6.4 6.4 6.4z m-588.8-448v-96c0-25.6-19.2-44.8-44.8-44.8-25.6 0-44.8 19.2-44.8 44.8v96c-19.2 12.8-32 38.4-32 64 0 44.8 32 76.8 76.8 76.8s76.8-32 76.8-76.8c0-25.6-12.8-51.2-32-64z"  horiz-adv-x="1024" />

    
    <glyph glyph-name="tingyong" unicode="&#59240;" d="M844.8 416H768V614.4v6.4c-6.4 140.8-121.6 256-262.4 256-147.2 0-262.4-121.6-262.4-262.4v-198.4H160c-32 0-57.6-25.6-57.6-51.2v-422.4c0-32 25.6-51.2 51.2-51.2h684.8c32 0 51.2 25.6 51.2 51.2V364.8c6.4 25.6-19.2 51.2-44.8 51.2zM345.6 614.4c0 89.6 70.4 160 160 160 83.2 0 153.6-70.4 160-153.6v-198.4h-320v192z m198.4-454.4v-102.4c0-25.6-19.2-44.8-44.8-44.8-25.6 0-44.8 19.2-44.8 44.8v102.4c-19.2 12.8-32 38.4-32 64 0 44.8 38.4 76.8 76.8 76.8S576 262.4 576 224c6.4-25.6-12.8-51.2-32-64z"  horiz-adv-x="1024" />

    
    <glyph glyph-name="excel" unicode="&#59314;" d="M1004.8 764.8H662.4v-64h102.4v-99.2h-102.4v-32h102.4v-99.2h-102.4v-32h102.4v-96h-102.4v-38.4h102.4v-96h-102.4v-38.4h102.4v-96h-102.4v-70.4h342.4c6.4 3.2 9.6 9.6 12.8 19.2 3.2 9.6 6.4 19.2 6.4 25.6v704c0 6.4-3.2 9.6-6.4 9.6s-9.6 3.2-12.8 3.2zM960 70.4h-163.2v96H960v-96z m0 134.4h-163.2v96H960v-96z m0 134.4h-163.2v96H960v-96z m0 128h-163.2v99.2H960v-99.2z m0 134.4h-163.2V700.8H960v-99.2c0-3.2 0 0 0 0zM0 780.8v-793.6l604.8-105.6V886.4L0 780.8z m358.4-601.6c-3.2 6.4-12.8 32-32 80-9.6 28.8-22.4 54.4-35.2 83.2l-64-153.6-89.6 3.2 102.4 192-92.8 192 89.6 3.2 57.6-150.4 67.2 156.8 92.8 6.4-108.8-208 112-211.2-99.2 6.4z"  horiz-adv-x="1024" />

    
    <glyph glyph-name="pdf" unicode="&#59337;" d="M1024 755.2V768c0 19.2-25.6 38.4-44.8 38.4H608V896H537.6L0 800v-832c179.2-32 352-64 531.2-96h70.4v96h352c19.2 0 44.8 0 57.6 12.8 12.8 19.2 12.8 44.8 12.8 70.4v704zM326.4 358.4c-25.6-12.8-51.2-12.8-83.2-12.8v-128l-64 6.4V582.4c57.6 0 128 25.6 179.2-19.2 51.2-64 38.4-172.8-32-204.8zM985.6 0h-384V768h384v-768zM953.6 64v51.2H601.6v-51.2zM652.8 198.39999999999998h300.8v-44.8h-300.8zM652.8 358.4h300.8v-44.8h-300.8zM652.8 275.20000000000005h300.8v-44.8h-300.8zM780.8 608c-6.4-25.6-19.2-57.6-32-83.2-64-25.6-64-44.8-64-51.2 0-6.4 6.4-12.8 12.8-19.2h12.8c19.2 0 38.4 19.2 57.6 57.6 25.6 12.8 51.2 19.2 76.8 25.6 12.8-12.8 32-19.2 51.2-19.2 12.8 0 32 0 32 25.6 0 6.4-6.4 25.6-32 25.6-12.8 0-25.6 0-38.4-6.4-19.2 12.8-32 32-38.4 51.2 12.8 38.4 12.8 64 6.4 70.4-6.4 6.4-12.8 6.4-19.2 6.4-6.4 0-19.2-6.4-19.2-12.8-32-19.2-12.8-57.6-6.4-70.4zM704 473.6c6.4 6.4 12.8 12.8 25.6 19.2-6.4-6.4-19.2-12.8-25.6-19.2z m179.2 70.4c12.8 0 19.2-6.4 19.2-6.4h-12.8c-6.4 0-12.8 0-19.2 6.4h12.8z m-70.4 6.4c-12.8-6.4-25.6-6.4-38.4-12.8 6.4 12.8 12.8 25.6 19.2 44.8 6.4-12.8 12.8-25.6 19.2-32z m-25.6 121.6s6.4 0 0 0c6.4-12.8 6.4-25.6 6.4-32-6.4 12.8-6.4 19.2-6.4 32zM243.2 518.4v-115.2c19.2 0 51.2 0 64 25.6 12.8 25.6 12.8 51.2 0 76.8-12.8 19.2-38.4 12.8-64 12.8z"  horiz-adv-x="1024" />

    
    <glyph glyph-name="piliangzhuanfa" unicode="&#59352;" d="M563.2 665.6V812.8c12.8 64 64 25.6 64 25.6l358.4-307.2c83.2-57.6 6.4-96 6.4-96L640 128c-70.4-57.6-76.8 25.6-76.8 25.6V294.4c-364.8 115.2-512-332.8-512-332.8-12.8-25.6-25.6 0-25.6 0-134.4 672 537.6 704 537.6 704z"  horiz-adv-x="1024" />

    
    <glyph glyph-name="pifu" unicode="&#59096;" d="M1017.856 555.008c0 2.56 0 4.608-0.512 7.168-5.632 14.848-15.872 22.528-26.112 32.768-12.288 12.8-26.112 23.552-38.4 36.352-38.4 36.864-77.312 73.728-115.712 110.08-11.776 11.264-24.064 22.528-35.84 34.304-8.704 8.192-16.896 17.408-28.16 23.04-15.872 7.68-50.688 4.608-74.24 4.608h-24.576c-3.584-2.048-6.656-1.024-11.264-3.072-5.12-3.072-10.24-5.632-15.872-8.704-9.216-6.656-13.824-17.92-22.528-25.088-22.528-17.408-39.936-23.04-74.24-29.696-6.144-1.536-32.256-3.072-39.936-2.048-5.632 0.512-26.624 0.512-32.256 1.024-18.432 3.072-34.304 6.656-49.152 12.8-12.8 5.12-28.16 14.848-35.84 25.088-6.144 7.168-11.264 14.848-18.944 20.48-5.632 4.096-14.336 5.632-20.48 9.216H270.336v-1.536c-23.04-0.512-33.792-14.848-46.08-26.112-8.192-7.68-16.384-15.872-25.088-23.552L61.952 621.568C53.76 614.4 46.08 606.208 37.888 599.04c-13.824-12.288-27.648-23.552-31.744-45.056-1.536-9.216 3.072-18.944 5.632-24.064 5.632-12.8 16.384-19.968 25.6-28.672 7.68-7.68 15.36-15.36 24.064-22.528 7.168-7.168 13.824-13.824 20.992-20.48 14.848-13.824 29.184-27.136 44.032-40.96 6.144-5.632 11.776-12.288 18.944-16.896 10.24-6.656 29.184-13.824 45.568-7.168 19.456 7.68 30.208 23.04 44.544 35.328h1.536v-390.144c0-13.824-1.024-28.672 3.072-39.424 3.584-9.216 12.288-18.432 20.48-23.552 14.336-9.216 39.424-7.168 63.488-7.168h359.424c34.304 0 68.608-3.072 88.576 10.752 7.68 5.632 14.848 16.896 17.408 27.648l0.512 92.672V427.52c0.512 0 1.024 0.512 1.024 0.512 5.632-3.072 9.216-8.192 13.312-12.288 13.312-12.288 29.184-29.696 57.856-24.576 20.992 3.584 35.328 21.504 47.104 34.304 32.256 30.72 65.024 61.44 97.28 92.16 6.656 9.216 14.336 20.992 11.264 37.376z m-505.344-330.752c-89.088 0-161.28 72.704-161.28 161.28 0 89.088 72.704 161.28 161.28 161.28 89.088 0 161.28-72.704 161.28-161.28s-72.192-161.28-161.28-161.28z"  horiz-adv-x="1024" />

    
    <glyph glyph-name="shezhi1" unicode="&#59097;" d="M1006.08 482.304c-6.144 31.232-25.088 51.2-48.128 51.2h-5.12c-68.608 0-124.416 55.808-124.416 124.416 0 22.016 11.264 47.104 11.264 47.104 12.288 27.648 3.072 60.928-22.016 78.848l-2.048 1.024-124.928 69.632-2.048 0.512c-8.192 3.584-16.896 5.632-27.136 5.632-19.456 0-38.4-8.192-51.2-20.992-13.312-13.824-60.928-55.296-97.792-55.296-36.864 0-84.48 41.472-98.304 55.808-12.8 13.312-31.744 21.504-51.2 21.504-9.216 0-17.92-2.048-26.112-5.12l-2.048-0.512-129.024-71.68-2.048-1.024c-24.576-16.896-34.304-50.688-22.016-78.336 0 0 10.752-25.088 10.752-47.104 0-68.608-55.808-124.416-124.416-124.416h-5.12c-24.064 0-43.008-19.968-48.128-51.2-0.512-2.56-10.24-56.832-10.24-99.328 0-41.984 10.24-96.768 10.24-99.328 6.144-31.232 25.088-51.2 48.128-51.2h5.632c68.608 0 124.416-55.808 124.416-124.416 0-22.016-10.24-47.104-10.752-47.104-12.288-27.648-3.072-60.928 22.016-78.848l1.024-1.024 122.88-69.12 2.048-0.512c8.192-3.584 16.896-5.632 26.112-5.632 19.456 0 38.912 8.192 51.2 22.016 17.92 18.944 65.024 57.856 99.84 57.856 37.888 0 87.04-44.032 100.864-59.392 12.8-13.824 31.744-22.016 52.224-22.016 9.216 0 17.92 2.048 26.112 5.632l2.048 0.512 128 70.144 2.048 1.024c24.576 16.896 34.304 50.688 22.016 78.336 0 0-10.752 25.088-10.752 47.104 0 68.608 55.808 124.416 124.416 124.416h5.12c24.064 0 43.008 19.968 49.152 51.2 0 0.512 10.24 55.808 10.24 99.328-2.048 43.52-12.288 98.304-12.8 100.352z m-497.664-278.016c-99.328 0-179.2 80.896-179.2 179.2 0 99.328 80.896 179.2 179.2 179.2 99.328 0 179.2-80.896 179.2-179.2s-80.384-179.2-179.2-179.2z m0 0"  horiz-adv-x="1024" />

    
    <glyph glyph-name="guanbi1" unicode="&#59098;" d="M510.976 888.832C231.424 888.832 5.12 662.528 5.12 382.976 5.12 103.424 231.424-122.88 510.976-122.88s505.856 226.304 505.856 505.856v0.512c-0.512 279.552-226.816 505.344-505.856 505.344zM735.744 225.28c19.968-17.92 22.016-48.64 4.096-69.12s-48.64-22.016-69.12-4.096l-2.048 2.048-156.672 159.744-156.16-155.648c-19.456-19.456-51.2-19.456-70.656 0-19.456 19.456-19.456 51.2 0 70.656L440.32 385.024 284.672 540.672c-19.456 19.456-19.456 51.2 0 70.656s51.2 19.456 70.656 0L512 448.512l156.16 156.16c19.968 17.92 51.2 16.384 69.12-4.096 16.896-19.456 16.384-48.64-1.536-66.56L580.096 378.88l155.648-153.6z"  horiz-adv-x="1024" />

    
    <glyph glyph-name="zhongxin1" unicode="&#59138;" d="M905.6 891.2h-784C57.6 891.2 6.4 840 6.4 776v-784c0-64 51.2-115.2 115.2-115.2h784c64 0 115.2 51.2 115.2 115.2v784c6.4 64-51.2 115.2-115.2 115.2z m-46.4-686.4s-68.8-105.6-177.6-163.2c-108.8-57.6-243.2-40-331.2 14.4-88 56-116.8 102.4-116.8 102.4l-75.2-43.2s-16-8-16 9.6v272s0 24 17.6 16c16-8 182.4-102.4 233.6-131.2 28.8-12.8 3.2-24 3.2-24l-73.6-41.6s41.6-52.8 102.4-80c65.6-33.6 126.4-38.4 201.6-9.6 49.6 19.2 107.2 65.6 147.2 136l84.8-57.6z m38.4 166.4s0-24-17.6-16c-16 8-182.4 102.4-233.6 131.2-28.8 12.8-3.2 24-3.2 24l73.6 41.6s-41.6 52.8-102.4 80c-65.6 33.6-126.4 38.4-201.6 9.6-49.6-19.2-107.2-65.6-147.2-136l-83.2 56s68.8 105.6 177.6 163.2c105.6 59.2 240 41.6 328-12.8 88-56 116.8-102.4 116.8-102.4l75.2 43.2s16 8 16-9.6v-272z"  horiz-adv-x="1024" />

    
    <glyph glyph-name="zhanghao" unicode="&#59171;" d="M504.32 356.864c150.016 0 272.384 119.808 272.384 267.264C776.704 771.072 654.336 890.88 504.32 890.88S231.936 771.072 231.936 624.128c0-147.456 121.856-267.264 272.384-267.264z m-104.448-48.64c-189.952 0-331.264-128-331.264-313.856v-19.968c0-97.28 152.064-97.28 344.064-97.28h204.288c184.832 0 344.064 0 344.064 97.28v19.968c0 185.856-141.824 313.856-331.264 313.856H399.872z"  horiz-adv-x="1024" />

    
    <glyph glyph-name="mima" unicode="&#59172;" d="M544.256 199.168c21.504 12.288 36.352 35.84 36.352 62.976 0 39.936-32.256 72.192-72.192 72.192s-72.192-32.256-72.192-72.192c0-26.624 14.336-50.176 36.352-62.976v-118.272h72.192v118.272zM236.544 528.896V619.52c0 150.016 121.344 271.36 271.36 271.36s271.36-121.344 271.36-271.36v-90.624H865.28c39.936 0 72.192-32.256 72.192-72.192v-506.88c0-39.936-32.256-72.192-72.192-72.192H150.528c-39.936 0-72.192 32.256-72.192 72.192v506.88c0 39.936 32.256 72.192 72.192 72.192h86.016z m90.624 0h361.984V619.52c0 99.84-80.896 181.248-181.248 181.248S327.168 719.36 327.168 619.52v-90.624z"  horiz-adv-x="1024" />

    
    <glyph glyph-name="yanzhengma" unicode="&#59173;" d="M898.56 780.8c-195.584 0-304.128 63.488-353.792 101.376-16.384 14.336-42.496 14.336-58.88 0-47.104-37.888-155.648-101.376-353.792-101.376-26.112 0-47.104-20.992-47.104-47.104V307.2c0-136.704 77.824-261.632 200.192-323.072L493.056-117.76c14.336-7.168 28.16-7.168 39.936 0l207.36 101.376c122.368 61.44 200.192 186.368 200.192 323.072V733.696c5.12 25.6-16.384 47.104-41.984 47.104zM747.52 485.888l-252.416-252.416c-18.944-18.944-47.104-18.944-66.048 0L334.848 327.68c-18.944 18.944-18.944 47.104 0 66.048 18.944 18.944 47.104 18.944 66.048 0l61.44-61.44 219.136 219.136c18.944 18.944 47.104 18.944 66.048 0 18.944-18.432 18.944-46.592 0-65.536z"  horiz-adv-x="1024" />

    
    <glyph glyph-name="shanchu" unicode="&#59174;" d="M512 892.416c-281.6 0-506.88-227.328-506.88-506.88s227.328-506.88 506.88-506.88 506.88 227.328 506.88 506.88c0 279.04-227.328 506.88-506.88 506.88z m0-940.544c-240.64 0-433.152 195.072-433.152 433.152 0 240.64 195.072 433.152 433.152 433.152 238.08 0 433.152-195.072 433.152-433.152 0-238.08-195.072-433.152-433.152-433.152z m0 0M665.6 591.36l-153.6-153.6-153.6 153.6-52.224-52.224 153.6-153.6-153.6-153.6L358.4 179.712l153.6 153.6 153.6-153.6 52.224 52.224-153.6 153.6 153.6 153.6L665.6 591.36z m0 0"  horiz-adv-x="1024" />

    
    <glyph glyph-name="gouxuan" unicode="&#59175;" d="M1018.88 708.608l-98.304 89.6L335.872 162.304l-243.2 217.6L5.12 279.552l275.456-245.248L344.576-25.6 1018.88 708.608z m0 0"  horiz-adv-x="1024" />

    
    <glyph glyph-name="putongdingdan" unicode="&#59176;" d="M716.288 589.312h-61.952v-81.92H366.592v81.92h-61.44c-23.04 0-40.96-18.432-40.96-40.96v-411.136c0-23.04 18.432-40.96 40.96-40.96h411.136c23.04 0 40.96 18.432 40.96 40.96V548.352c0.512 22.528-17.92 40.96-40.96 40.96zM655.36 178.688H367.104c-11.264 0-20.992 9.216-20.992 20.992s9.216 20.992 20.992 20.992H655.36c11.264 0 20.992-9.216 20.992-20.992-0.512-11.776-10.24-20.992-20.992-20.992z m0 102.4H367.104c-11.264 0-20.992 9.216-20.992 20.992 0 11.264 9.216 20.992 20.992 20.992H655.36c11.264 0 20.992-9.216 20.992-20.992-1.024-11.776-10.24-20.992-20.992-20.992z m0 102.912H367.104c-11.264 0-20.992 9.216-20.992 20.992 0 11.264 9.216 20.992 20.992 20.992H655.36c11.264 0 20.992-9.216 20.992-20.992-1.024-11.776-10.24-20.992-20.992-20.992zM614.4 630.272h-46.08c0 23.04-25.088 40.96-57.344 40.96-31.232 0-57.344-18.432-57.344-40.96h-45.568v-81.92h205.312l1.024 81.92zM511.488 890.88C231.936 890.88 4.608 663.552 4.608 384s227.328-506.88 506.88-506.88 506.88 227.328 506.88 506.88-227.328 506.88-506.88 506.88z m287.744-753.152c0-45.568-36.864-81.92-81.92-81.92H306.176c-45.568 0-81.92 36.864-81.92 81.92V548.864c0 45.568 36.864 81.92 81.92 81.92h61.952v40.96h55.296c17.92 24.576 50.688 40.96 88.576 40.96s70.656-16.896 88.576-40.96h55.296v-40.96h61.952c45.568 0 81.92-36.864 81.92-81.92l-0.512-411.136z"  horiz-adv-x="1024" />

    
    <glyph glyph-name="daicaidingdan" unicode="&#59177;" d="M523.776 188.928c0-28.672 23.04-51.712 51.712-51.712s51.712 23.04 51.712 51.712S604.16 240.64 575.488 240.64v-0.512H568.32c-25.6-3.584-44.544-25.6-44.544-51.2z m-57.856 1.024c0 17.92 4.096 35.328 12.8 50.688H290.304c-31.232 0-58.368-17.92-58.368-39.936v-34.816c0-20.992 26.624-39.936 58.368-39.936H486.4c-13.312 18.432-20.48 40.96-20.48 64zM512 890.88C231.936 890.88 5.12 664.064 5.12 384s226.816-506.88 506.88-506.88 506.88 226.816 506.88 506.88-226.816 506.88-506.88 506.88z m293.376-551.424c0-165.376-90.112-272.384-228.352-272.384h-286.72c-63.488 0-116.224 44.032-116.224 97.792V199.68c0 44.544 35.84 82.432 84.48 94.208V657.92c0 32.256 26.112 57.856 57.856 58.368H747.52c32.256 0 57.856-26.112 57.856-58.368v-318.464zM316.416 297.984h242.176c5.632 1.024 11.264 1.536 16.896 1.536 60.416 0 109.568-49.152 109.568-109.568 0-9.728-1.536-18.944-3.584-28.16 47.104 40.96 65.536 110.592 65.536 177.664V657.92H315.904l0.512-359.936z m110.592 281.6h208.384c15.872-1.024 28.16-14.848 27.136-31.232-1.024-14.336-12.8-26.112-27.136-27.136H427.008c-15.872 1.024-28.16 14.848-27.136 31.232 1.024 14.848 12.8 26.624 27.136 27.136z m0-123.904h154.112c15.872 0 29.184-12.8 29.184-29.184 0-15.872-12.8-29.184-29.184-29.184H427.008c-15.872 0-29.184 12.8-29.184 29.184 0.512 15.872 13.312 29.184 29.184 29.184z"  horiz-adv-x="1024" />

    
    <glyph glyph-name="fayundingdan" unicode="&#59178;" d="M510.976 892.416C230.912 892.416 3.584 665.088 3.584 385.024S230.912-122.88 510.976-122.88 1018.88 104.448 1018.88 385.024 791.552 892.416 510.976 892.416zM450.56 640.512h122.368c19.456 0 34.816-17.92 34.816-38.4s-15.36-38.4-34.304-38.4H450.56c-19.456 0-34.816 17.92-34.816 38.4 0 20.992 15.36 38.4 34.816 38.4z m193.536-305.664H378.88c-13.824 0-25.6 11.776-25.6 25.6s11.776 25.6 25.6 25.6h264.192c13.824 0 25.6-10.752 26.624-25.6 0-13.824-11.776-25.6-25.6-25.6z m25.6-79.36c0-13.824-11.776-25.6-25.6-25.6H378.88c-13.824 0-25.6 11.776-25.6 25.6s11.776 25.6 25.6 25.6h264.192c14.336 0 25.6-10.752 26.624-25.6z m-25.6 176.64H378.88c-13.824 0-25.6 11.776-25.6 25.6s11.776 25.6 25.6 25.6h264.704c13.824 0 25.6-11.776 25.6-25.6 0.512-14.336-11.264-25.6-25.088-25.6z m139.776-286.208c0-52.736-29.696-81.408-81.92-81.408H320.512c-50.688 0-81.92 32.256-81.92 81.408V544.768c0 48.128 27.648 78.848 78.336 78.848h44.032c13.824 0 21.504-9.216 21.504-23.552 0-15.36-7.168-27.136-21.504-27.136h-44.032c-16.896 0-27.648-10.752-27.648-27.136v-403.456c0-14.336 17.408-27.136 36.352-27.136h379.904c16.896 0 27.648 10.752 27.648 27.136V545.792c0 16.384-10.752 27.136-27.648 27.136h-35.328c-14.336 0-28.672 13.312-28.672 27.136 0 13.824 13.824 23.552 28.672 23.552h35.328c48.128 0 78.336-32.256 78.336-78.848v-398.848z"  horiz-adv-x="1024" />

    
    <glyph glyph-name="zhiding" unicode="&#59179;" d="M5.12 629.76h1013.76v-115.712l-115.712-116.224 115.712-115.712v-115.712H5.12z"  horiz-adv-x="1024" />

    
    <glyph glyph-name="New" unicode="&#59181;" d="M2.56 622.08v-551.936l116.224 116.224H1018.88V622.08zM0 64V624.64h1021.44v-440.832H119.808L0 64zM5.12 619.52v-542.72l112.64 112.64h898.56V619.52H5.12z"  horiz-adv-x="1024" />

    
    <glyph glyph-name="tuichu" unicode="&#59182;" d="M25.088 582.656C-16.896 641.024 11.776 737.28 95.744 737.28h829.44c83.968 0 113.664-96.256 72.192-154.624l-392.192-553.984c-41.984-58.368-146.944-58.368-188.416 0L25.088 582.656z"  horiz-adv-x="1024" />

    
    <glyph glyph-name="caidanxiaoguo" unicode="&#59183;" d="M10.2144 378.88L511.99488 880.66048 1013.77536 378.88l-501.78048-501.78048z"  horiz-adv-x="1024" />

    
    <glyph glyph-name="guanbi" unicode="&#59184;" d="M513.024 888.832c-173.568 0-314.368-140.8-314.368-314.368s140.8-314.368 314.368-314.368 314.368 140.8 314.368 314.368-140.8 314.368-314.368 314.368z m0-577.024c-144.896 0-262.656 117.76-262.656 262.656 0 144.896 117.76 262.656 262.656 262.656 144.896 0 262.656-117.76 262.656-262.656 0-144.896-117.76-262.656-262.656-262.656z m32.256 262.656L619.52 648.704c8.704 8.704 8.704 23.552 0 32.256-8.704 8.704-23.552 8.704-32.256 0l-74.24-74.24-74.24 74.752c-8.704 8.704-23.552 8.704-32.256 0-8.704-8.704-8.704-23.552 0-32.256l74.24-74.24-74.24-74.752c-8.704-8.704-8.704-23.552 0-32.256 8.704-8.704 23.552-8.704 32.256 0l74.24 74.24 74.24-74.24c8.704-8.704 23.552-8.704 32.256 0 8.704 8.704 8.704 23.552 0 32.256l-74.24 74.24zM486.912 269.824h52.224V-122.88H486.912z"  horiz-adv-x="1024" />

    
    <glyph glyph-name="dagou" unicode="&#59185;" d="M162.304 446.464c-35.84 37.376-94.72 37.376-130.048 1.536-35.84-35.328-35.84-94.72 0-130.048l271.872-274.944 4.608-5.632c35.84-33.792 94.208-33.792 130.048 0L992.256 594.944c35.328 36.352 35.328 94.72 0 130.56-35.328 36.352-94.208 36.352-129.536 0l-489.472-491.52-210.944 212.48z"  horiz-adv-x="1024" />

    
    <glyph glyph-name="sousuo" unicode="&#59186;" d="M1003.008 25.6l-197.632 134.144c39.936 65.536 62.464 142.336 62.464 224.256 0 238.592-193.536 431.616-431.616 431.616C198.656 815.616 5.12 623.104 5.12 384.512s193.536-431.616 431.616-431.616c130.048 0 247.296 57.856 326.656 148.992l199.68-136.192c5.632-4.096 13.312-6.144 19.968-6.144 11.776 0 23.04 5.12 29.696 15.872 10.752 16.896 6.656 38.912-9.728 50.176m-426.496 27.648c-44.032-18.432-91.136-28.16-139.776-28.16s-95.744 9.728-139.776 28.16c-43.008 17.92-81.408 44.032-114.176 76.8a358.912 358.912 0 0 0-76.8 114.176c-18.432 44.032-28.16 91.136-28.16 139.776s9.728 95.744 28.16 139.776c17.92 43.008 44.032 81.408 76.8 114.176s71.68 58.88 114.176 76.8c44.032 18.432 91.136 28.16 139.776 28.16s95.744-9.728 139.776-28.16c43.008-17.92 81.408-44.032 114.176-76.8s58.88-71.68 76.8-114.176c18.432-44.032 28.16-91.136 28.16-139.776s-9.728-95.744-28.16-139.776c-9.216-22.016-20.48-43.008-33.792-62.464-3.584-2.56-7.68-5.632-10.24-9.728-2.048-3.072-3.584-6.144-4.608-10.24-9.216-11.264-17.92-22.016-28.16-31.744-32.768-32.768-71.168-58.88-114.176-76.8M660.992 551.936c-5.12 0-10.752 1.536-14.848 4.096-9.728 5.632-19.456 11.264-30.208 15.36-14.848 6.144-20.992 23.552-15.36 37.888 6.144 14.848 23.552 20.992 37.888 15.36 13.312-5.12 25.6-12.288 37.888-19.456 13.824-8.704 17.92-26.112 9.728-39.936-6.144-8.704-15.36-13.312-25.088-13.312m-440.832-30.72c-6.144 0-12.288 2.048-17.408 5.632-12.8 9.728-14.848 27.648-5.12 40.448C240.64 623.104 302.592 661.504 372.224 673.28c55.296 10.24 112.128 3.584 163.328-17.92 14.848-6.144 20.992-23.552 15.36-37.888-6.144-14.848-23.552-20.992-37.888-15.36-40.96 17.408-86.016 22.528-130.56 14.336-55.808-10.24-104.96-40.448-139.776-84.992-5.12-6.656-13.312-10.24-22.528-10.24"  horiz-adv-x="1024" />

    
    <glyph glyph-name="wenxintishi" unicode="&#59187;" d="M510.976 130.56c-158.72 0-285.184 126.464-285.184 285.184s126.464 285.184 285.184 285.184 285.184-126.464 285.184-285.184-126.464-285.184-285.184-285.184z m0 63.488c120.32 0 222.208 101.888 222.208 222.208s-101.888 222.208-222.208 222.208-221.696-101.888-221.696-222.208 101.376-222.208 221.696-222.208z m-126.464-126.976h253.952c18.944 0 31.744-12.8 31.744-31.744s-12.8-31.744-31.744-31.744H384.512c-18.944 0-31.744 12.8-31.744 31.744s12.8 31.744 31.744 31.744z m63.488-126.976h126.464c18.944 0 31.744-12.8 31.744-31.744s-12.8-31.744-31.744-31.744H448c-18.944 0-31.744 12.8-31.744 31.744-0.512 18.944 12.288 31.744 31.744 31.744z m443.904 507.392h63.488c18.944 0 31.744-12.8 31.744-31.744s-12.8-31.744-31.744-31.744h-63.488c-18.944 0-31.744 12.8-31.744 31.744-0.512 19.456 12.288 31.744 31.744 31.744z m-824.832 0h63.488c18.944 0 31.744-12.8 31.744-31.744s-12.8-31.744-31.744-31.744H67.072c-18.944-0.512-31.744 12.288-31.744 31.744 0 19.456 12.8 31.744 31.744 31.744zM510.976 891.904c18.944 0 31.744-12.8 31.744-31.744v-63.488c0-18.944-12.8-31.744-31.744-31.744s-31.744 12.8-31.744 31.744V860.16c0 18.944 12.8 31.744 31.744 31.744zM174.592 752.128c12.8 12.8 31.744 12.8 44.032 0l44.032-44.032c12.8-12.8 12.8-31.744 0-44.032-12.8-12.8-31.744-12.8-44.032 0l-44.032 44.032c-12.288 12.288-12.288 31.744 0 44.032z m672.768 0c12.8-12.8 12.8-31.744 0-44.032l-44.032-44.032c-12.8-12.8-31.744-12.8-44.032 0-12.8 12.8-12.8 31.744 0 44.032l44.032 44.032c12.288 12.8 31.744 12.8 44.032 0z"  horiz-adv-x="1024" />

    
    <glyph glyph-name="rili" unicode="&#59188;" d="M839.68 816.128h-71.68v19.456c0 24.576-19.968 44.544-44.544 44.544s-44.544-19.968-44.544-44.544v-19.456H343.04v19.456c0 24.576-19.968 44.544-44.544 44.544s-44.544-19.968-44.544-44.544v-19.456h-71.68C84.992 816.128 5.12 736.256 5.12 638.976v-553.984c0-97.28 79.872-177.152 177.152-177.152H839.68c97.28 0 177.152 79.872 177.152 177.152V638.976c-0.512 97.28-79.872 177.152-177.152 177.152z m87.552-715.264c0-55.808-45.568-101.376-101.376-101.376H195.584c-55.808 0-101.376 45.568-101.376 101.376V614.912c0 60.416 61.952 109.568 122.368 109.568h37.376v-73.728c0-24.576 19.968-44.544 44.544-44.544s44.544 19.968 44.544 44.544V724.48h335.36v-73.728c0-24.576 19.968-44.544 44.544-44.544s44.544 19.968 44.544 44.544V724.48h37.376c67.072 0 122.368-54.784 122.368-122.368v-501.248zM317.44 464.896H210.944c-24.576 0-44.544-19.968-44.544-44.544s19.968-44.544 44.544-44.544H317.44c24.576 0 44.544 19.968 44.544 44.544s-19.968 44.544-44.544 44.544z m246.784 0H457.728c-24.576 0-44.544-19.968-44.544-44.544s19.968-44.544 44.544-44.544h106.496c24.576 0 44.544 19.968 44.544 44.544s-19.968 44.544-44.544 44.544z m246.272 0h-106.496c-24.576 0-44.544-19.968-44.544-44.544s19.968-44.544 44.544-44.544h106.496c24.576 0 44.544 19.968 44.544 44.544 0 24.576-19.968 44.544-44.544 44.544zM317.44 270.848H210.944c-24.576 0-44.544-19.968-44.544-44.544s19.968-44.544 44.544-44.544H317.44c24.576 0 44.544 19.968 44.544 44.544s-19.968 44.544-44.544 44.544z m246.784 0H457.728c-24.576 0-44.544-19.968-44.544-44.544s19.968-44.544 44.544-44.544h106.496c24.576 0 44.544 19.968 44.544 44.544s-19.968 44.544-44.544 44.544z m246.272 0h-106.496c-24.576 0-44.544-19.968-44.544-44.544s19.968-44.544 44.544-44.544h106.496c24.576 0 44.544 19.968 44.544 44.544 0 24.576-19.968 44.544-44.544 44.544z"  horiz-adv-x="1024" />

    
    <glyph glyph-name="xiala" unicode="&#59189;" d="M560.64 128c-14.336-14.336-33.792-27.648-51.712-23.552-18.432-3.072-35.84 11.264-49.664 23.552l-440.32 442.368c-22.528 22.528-22.528 58.88 0 81.408s58.88 22.528 81.408 0l409.6-420.864 410.624 420.864c22.528 22.528 58.88 22.528 81.408 0s22.528-58.88 0-81.408L560.64 128z"  horiz-adv-x="1024" />

    
    <glyph glyph-name="tishi" unicode="&#59190;" d="M888.832-48.64H137.216c-116.224 0-163.328 80.384-104.96 178.688L408.064 760.832c58.368 98.304 153.6 98.304 211.968 0l373.76-631.296c58.368-97.792 11.264-178.176-104.96-178.176zM513.024 660.48c-31.232 0-56.832-25.6-56.832-56.832l28.16-368.64h56.832l28.16 368.64c0.512 31.232-25.088 56.832-56.32 56.832z m0-482.304c-31.232 0-56.832-25.6-56.832-56.832s25.6-56.832 56.832-56.832 56.832 25.6 56.832 56.832c-0.512 31.744-25.6 56.832-56.832 56.832z"  horiz-adv-x="1024" />

    
    <glyph glyph-name="fasongyoujianjilu" unicode="&#59191;" d="M1013.248 530.432c-4.096 16.384-10.752 32.256-19.968 46.08-5.632 8.704-12.8 17.408-20.48 24.576l-18.944 10.24 8.704-1.536c-5.12 4.096-10.24 8.192-15.872 11.776-2.048 1.536-4.608 3.072-5.632 3.072l-26.624 15.36v0.512c0 7.168-0.512 14.848-2.048 23.04-11.264 66.56-68.608 115.2-136.192 115.2h-101.888l-87.04 50.176-8.704 4.608c-40.448 22.016-94.208 22.528-137.216-0.512L347.648 778.24h-102.4c-67.584 0-124.928-48.128-136.192-115.2-1.024-7.68-2.048-15.36-2.048-23.04v-0.512l-32.768-18.944C56.32 609.792 40.96 594.432 29.184 576.512c-9.216-13.824-15.36-28.672-19.456-44.544-5.12-10.752-5.12-22.528-5.12-33.792v-418.304c0-25.088 6.656-60.416 25.088-81.92 26.624-46.592 62.464-56.32 88.064-56.32h786.944c26.624 0 62.976 9.728 87.552 55.296 25.088 26.624 25.6 57.344 25.6 81.408V497.664c2.048 8.192 1.536 19.456-4.608 32.768m-98.304 29.184c8.192-5.632 15.36-12.8 20.48-20.992 4.096-6.144 7.168-12.288 9.216-18.944-0.512-1.536-1.024-3.072-1.536-5.12-0.512-1.536-1.536-3.584-2.048-5.12-1.024-2.56-2.56-5.12-4.096-7.68-1.024-1.536-1.536-3.072-2.56-4.608l-6.144-7.68c-1.024-1.024-1.536-2.048-2.56-3.072-3.072-3.072-6.656-6.144-10.24-8.192V559.616z m-384 218.624H491.52c12.8 3.584 26.624 3.072 39.424 0M176.64 640.512c0 4.096 0.512 7.68 1.024 11.264 5.632 33.28 34.304 57.344 67.584 57.344h531.456c33.792 0 61.952-24.064 67.584-57.344 0.512-3.584 1.024-7.68 1.024-11.776v-202.24l-258.048-148.992-15.36-8.704-24.064-13.824c-23.04-12.288-51.2-12.288-74.752 0-0.512 0.512-1.024 0.512-1.536 1.024l-20.48 11.776-16.384 9.728-232.96 135.168-25.088 14.848V640.512zM87.04 538.624c5.632 8.704 12.8 15.872 20.48 20.992v-80.384c-3.072 2.048-6.656 4.608-9.216 7.168 0 0-0.512 0-0.512 0.512-3.584 3.072-6.656 7.168-9.216 10.752-1.024 1.024-1.536 2.56-2.048 3.584-1.536 2.56-3.584 5.632-4.608 8.704-0.512 1.536-1.536 3.072-2.048 4.608-0.512 1.536-1.024 3.072-1.536 5.12 1.536 6.144 4.608 12.8 8.704 18.944m-13.312-458.24V417.792l9.216-5.12 24.576-14.336 68.096-39.424 1.024-0.512 175.104-100.864 13.824-8.192-241.152-139.264-50.176-29.184-0.512-0.512m830.976-69.632H117.76c-5.632 0-10.24 1.536-14.848 5.12 2.048 2.048 4.608 4.096 7.168 5.632L435.2 209.408l6.144-3.584c21.504-11.776 45.568-17.92 70.144-17.92 24.576 0 47.616 5.632 69.632 17.408 1.536 1.024 3.584 1.536 4.608 2.56l2.56 1.536 320.512-184.832 2.56-2.048c3.072-2.048 6.144-4.608 9.216-7.168-4.608-3.072-9.216-4.608-15.872-4.608m44.032 70.144c-0.512 0-0.512 0 0 0-3.072 2.048-5.632 3.584-7.168 4.608l-284.16 164.352 188.416 108.544 2.56 1.536 66.56 38.4 33.792 19.456v-336.896zM249.344 610.816H773.12v-69.12H249.344V610.816zM249.344 498.176H773.12v-69.12H249.344V498.176z"  horiz-adv-x="1024" />

    
    <glyph glyph-name="zhanghaoquanxianguanli" unicode="&#59192;" d="M847.872 501.248h-236.032c-18.432 0-33.792-14.848-33.792-33.792s14.848-33.792 33.792-33.792h236.032c18.432 0 33.792 14.848 33.792 33.792s-15.36 33.792-33.792 33.792z m0-168.448h-236.032c-18.432 0-33.792-14.848-33.792-33.792s14.848-33.792 33.792-33.792h236.032c18.432 0 33.792 14.848 33.792 33.792s-15.36 33.792-33.792 33.792z m-450.56-73.728v22.016c32.256 20.992 64 57.856 80.896 103.424 12.288 5.12 20.992 19.968 27.648 46.592 5.632 20.48-3.072 34.304-14.848 41.472-5.632 96.768-62.464 152.576-148.992 152.576-87.552 0-146.944-57.344-151.552-156.672-10.752-8.704-17.408-23.04-12.288-43.008 7.68-28.672 16.896-45.056 29.696-51.712 18.432-40.96 48.128-73.728 78.848-93.184v-21.504c-84.992-9.216-146.944-38.912-146.944-74.24 0-42.496 404.48-42.496 404.48 0 0 35.328-61.952 65.024-146.944 74.24zM915.456 793.6h-808.96C50.176 793.6 5.12 748.544 5.12 692.224v-606.72C5.12 29.696 50.176-15.36 106.496-15.36h808.96c55.808 0 101.376 45.056 101.376 101.376V692.224c-0.512 56.32-45.568 101.376-101.376 101.376z m33.28-707.584c0-18.432-14.848-33.792-33.792-33.792h-808.96c-18.432 0-33.792 14.848-33.792 33.792V692.224c0 18.432 14.848 33.792 33.792 33.792h808.96c18.432 0 33.792-14.848 33.792-33.792v-606.208z"  horiz-adv-x="1024" />

    
    <glyph glyph-name="jichupeizhi" unicode="&#59193;" d="M495.104-36.864l-5.632 0.512H436.224l-15.36 110.592-25.088 8.704c-36.352 12.8-70.144 31.744-99.84 56.832l-20.48 16.896-103.424-44.032-72.192 122.368L189.44 303.104l-4.608 25.6c-3.584 18.432-5.12 37.376-5.12 56.32s2.048 37.888 5.632 56.832l4.608 26.112-89.6 68.096 70.656 120.832L275.456 614.4l19.968 16.896c29.696 24.576 64 44.032 100.352 56.832l24.576 8.704 15.36 110.592h141.824l15.36-110.08 25.088-9.216c36.352-12.8 70.144-31.744 99.84-56.32l20.48-17.408 103.936 44.032 71.68-122.368L824.32 467.968l4.608-25.6c7.168-37.376 7.168-75.776 0-113.664l-4.096-22.016H962.56l-43.008 32.768c3.584 30.208 3.584 60.928 0 91.136l55.296 42.496c31.744 19.968 41.984 60.416 23.04 92.16l-87.04 148.992c-12.8 20.992-35.328 33.792-59.904 33.792-10.752 0-21.504-2.56-30.208-6.656l-67.072-26.624c-25.088 17.92-52.224 33.28-80.896 45.568l-9.728 68.608C661.504 865.792 630.784 894.976 593.92 894.464H419.328c-36.352 0-66.56-28.16-68.608-63.488l-9.728-70.656c-28.672-12.288-55.296-27.648-80.384-45.568l-65.024 26.112c-32.768 15.872-72.704 4.608-92.16-26.624l-87.04-148.48c-18.432-31.232-9.216-71.168 21.504-90.624l57.344-43.52c-3.584-30.208-3.584-60.928 0-91.136l-55.296-42.496c-31.232-19.456-41.472-60.416-23.04-92.16l87.552-148.48c12.288-20.992 35.328-33.792 59.904-33.792 10.752 0 21.504 2.56 30.208 7.168l67.072 26.624c25.088-17.92 51.712-33.28 80.384-45.568l9.728-68.608c1.536-33.28 27.136-60.928 60.416-65.024l16.896-0.512h61.44c13.312 0 24.064 10.752 24.576 24.064v37.888c0 6.656-2.56 12.8-7.68 17.408-4.096 3.072-8.192 5.12-12.288 6.144zM628.736 315.392H706.56l1.536 4.608c7.168 20.992 10.752 43.008 10.752 65.536 0 115.2-95.232 208.896-211.968 208.896-116.736 0-211.968-93.696-211.968-208.896 0-112.64 89.6-203.776 203.264-208.384l7.168-0.512v70.144l-6.656 0.512c-74.24 4.096-132.608 65.024-133.12 138.24 0 76.288 62.976 138.24 140.8 138.24s140.8-61.952 140.8-138.24c0-20.992-5.12-41.472-14.336-60.416 1.024 0-4.096-9.728-4.096-9.728zM1000.448 242.176h-403.456c-9.216 0-16.384-7.168-16.896-16.384v-38.912c0-9.216 7.68-16.384 16.896-16.384h403.968c9.216 0 16.384 7.168 16.384 16.384v38.912c-0.512 9.216-7.68 16.384-16.896 16.384z m0-146.432h-403.456c-9.216 0-16.384-7.168-16.896-16.384v-38.912c0-9.216 7.68-16.384 16.896-16.384h403.968c9.216 0 16.384 7.168 16.384 16.384v38.912c-0.512 8.704-7.68 15.872-16.896 16.384z m0-146.944h-403.456c-9.216 0-16.384-7.168-16.896-16.384v-38.912c0-9.216 7.68-16.384 16.896-16.384h403.968c9.216 0 16.384 7.68 16.384 16.384v38.4c-0.512 9.728-7.68 16.896-16.896 16.896z"  horiz-adv-x="1024" />

    
    <glyph glyph-name="mianbaoxie" unicode="&#59194;" d="M596.48-71.68v312.32H437.248v-312.32H195.072c-25.6 0-44.544 12.8-44.544 38.4v375.808c0 6.144 6.144 12.8 6.144 18.944C227.328 425.472 296.96 482.816 360.96 546.304c44.544 38.4 95.744 82.944 140.288 120.832 6.144 0 6.144 0 12.8 6.144 25.6-25.6 57.344-51.2 82.944-70.144 89.088-76.288 178.688-159.232 267.776-236.032 12.8-6.144 12.8-18.944 12.8-31.744V-20.48c0-18.944-6.144-31.744-18.944-44.544-6.144-6.144-12.8-6.144-18.944-6.144h-236.032c-0.512-0.512 0.512-0.512-7.168-0.512z m121.344 758.272V807.936c0 25.6 6.144 31.744 25.6 31.744h108.544c18.944 0 25.6-6.144 25.6-25.6v-248.32c0-12.8 6.144-18.944 12.8-25.6 38.4-31.744 76.288-70.144 114.688-101.888 18.944-18.944 18.944-25.6 0-44.544l-25.6-38.4c-6.144-25.6-18.944-25.6-31.744-12.8-140.288 127.488-280.576 248.32-420.352 369.664l-12.8 12.8c-31.744-25.6-63.488-57.344-95.744-82.944-108.544-101.888-223.232-203.776-337.92-299.52-12.8-12.8-25.6-12.8-38.4 0L10.24 380.928c-6.144 12.8-6.144 25.6 0 38.4l6.144 6.144 190.976 165.888L462.848 814.08c25.6 31.744 76.288 31.744 108.544 6.144l6.144-6.144 133.632-120.832c0 6.144 0 0 6.656-6.656z"  horiz-adv-x="1024" />

    
    <glyph glyph-name="piliangzhongfa" unicode="&#59195;" d="M513.536-122.88C235.52-122.88 8.192 104.448 8.192 382.464S235.52 887.808 513.536 887.808 1018.88 660.48 1018.88 382.464 791.552-122.88 513.536-122.88zM721.92 559.616c0 12.8 0 18.944-6.144 25.088-6.144 6.144-12.8 6.144-25.088 6.144L204.288 445.44c-12.8 0-18.944-6.144-18.944-18.944s6.144-18.944 12.8-25.088l202.24-107.52 81.92-202.24c6.144-6.144 12.8-12.8 25.088-12.8s18.944 6.144 25.088 12.8c0 0.512 189.44 467.968 189.44 467.968z"  horiz-adv-x="1024" />

    
    <glyph glyph-name="piliangzhongfa1" unicode="&#59196;" d="M513.024 890.88c-279.04 0-506.88-228.352-506.88-506.88 0-279.04 228.352-506.88 506.88-506.88 279.04 0 506.88 228.352 506.88 506.88 0.512 279.04-227.84 506.88-506.88 506.88z m0-815.616c-158.208 0-286.72 129.024-286.72 286.72 0 24.576 19.968 44.032 44.032 44.032 24.576 0 44.032-19.968 44.032-44.032 0-109.056 89.6-198.656 198.656-198.656s198.656 89.6 198.656 198.656c0 94.208-66.048 173.056-154.624 193.024v-82.432L380.928 582.656l176.64 110.592v-47.616c137.216-20.992 242.688-140.8 242.688-283.648 0-157.696-129.024-286.72-287.232-286.72z"  horiz-adv-x="1024" />

    


  </font>
</defs>
</svg>
